<svg width="30" height="30" viewBox="0 0 30 30" fill="none" xmlns="http://www.w3.org/2000/svg">
<circle cx="15" cy="15" r="14" fill="#0D55DF" stroke="white" stroke-width="2"/>
<path d="M9.84039 9.86669H12.0004L13.4404 8.40002H17.7604L19.2004 9.86669H21.3604C21.7423 9.86669 22.1086 10.0212 22.3786 10.2963C22.6487 10.5713 22.8004 10.9444 22.8004 11.3334V20.1334C22.8004 20.5223 22.6487 20.8954 22.3786 21.1704C22.1086 21.4455 21.7423 21.6 21.3604 21.6H9.84039C9.45848 21.6 9.09221 21.4455 8.82216 21.1704C8.5521 20.8954 8.40039 20.5223 8.40039 20.1334V11.3334C8.40039 10.9444 8.5521 10.5713 8.82216 10.2963C9.09221 10.0212 9.45848 9.86669 9.84039 9.86669ZM15.6004 12.0667C14.6456 12.0667 13.7299 12.453 13.0548 13.1406C12.3797 13.8283 12.0004 14.7609 12.0004 15.7334C12.0004 16.7058 12.3797 17.6384 13.0548 18.3261C13.7299 19.0137 14.6456 19.4 15.6004 19.4C16.5552 19.4 17.4708 19.0137 18.146 18.3261C18.8211 17.6384 19.2004 16.7058 19.2004 15.7334C19.2004 14.7609 18.8211 13.8283 18.146 13.1406C17.4708 12.453 16.5552 12.0667 15.6004 12.0667ZM15.6004 13.5334C16.1733 13.5334 16.7227 13.7651 17.1277 14.1777C17.5328 14.5903 17.7604 15.1499 17.7604 15.7334C17.7604 16.3168 17.5328 16.8764 17.1277 17.289C16.7227 17.7016 16.1733 17.9334 15.6004 17.9334C15.0275 17.9334 14.4781 17.7016 14.073 17.289C13.668 16.8764 13.4404 16.3168 13.4404 15.7334C13.4404 15.1499 13.668 14.5903 14.073 14.1777C14.4781 13.7651 15.0275 13.5334 15.6004 13.5334Z" fill="white"/>
</svg>
