<svg width="138" height="42" viewBox="0 0 138 42" fill="none" xmlns="http://www.w3.org/2000/svg">
<path d="M20.44 15.4667H21.7608C22.2976 15.4667 22.8119 15.2509 23.1879 14.8678L23.4521 14.5988C23.8281 14.2158 24.3424 14 24.8792 14H27.5208C28.0576 14 28.5719 14.2158 28.9479 14.5988L29.2121 14.8678C29.5881 15.2509 30.1024 15.4667 30.6392 15.4667H31.96C32.3419 15.4667 32.7082 15.6212 32.9782 15.8962C33.2483 16.1713 33.4 16.5443 33.4 16.9333V25.7333C33.4 26.1223 33.2483 26.4954 32.9782 26.7704C32.7082 27.0455 32.3419 27.2 31.96 27.2H20.44C20.0581 27.2 19.6918 27.0455 19.4218 26.7704C19.1517 26.4954 19 26.1223 19 25.7333V16.9333C19 16.5443 19.1517 16.1713 19.4218 15.8962C19.6918 15.6212 20.0581 15.4667 20.44 15.4667ZM26.2 17.6667C25.2452 17.6667 24.3295 18.053 23.6544 18.7406C22.9793 19.4282 22.6 20.3609 22.6 21.3333C22.6 22.3058 22.9793 23.2384 23.6544 23.9261C24.3295 24.6137 25.2452 25 26.2 25C27.1548 25 28.0705 24.6137 28.7456 23.9261C29.4207 23.2384 29.8 22.3058 29.8 21.3333C29.8 20.3609 29.4207 19.4282 28.7456 18.7406C28.0705 18.053 27.1548 17.6667 26.2 17.6667ZM26.2 19.1333C26.7729 19.1333 27.3223 19.3651 27.7274 19.7777C28.1324 20.1903 28.36 20.7499 28.36 21.3333C28.36 21.9168 28.1324 22.4764 27.7274 22.889C27.3223 23.3015 26.7729 23.5333 26.2 23.5333C25.6271 23.5333 25.0777 23.3015 24.6726 22.889C24.2676 22.4764 24.04 21.9168 24.04 21.3333C24.04 20.7499 24.2676 20.1903 24.6726 19.7777C25.0777 19.3651 25.6271 19.1333 26.2 19.1333Z" fill="white"/>
<path d="M49.541 22.2871H50.666C50.6074 22.8262 50.4531 23.3086 50.2031 23.7344C49.9531 24.1602 49.5996 24.498 49.1426 24.748C48.6855 24.9941 48.1152 25.1172 47.4316 25.1172C46.9316 25.1172 46.4766 25.0234 46.0664 24.8359C45.6602 24.6484 45.3105 24.3828 45.0176 24.0391C44.7246 23.6914 44.498 23.2754 44.3379 22.791C44.1816 22.3027 44.1035 21.7598 44.1035 21.1621V20.3125C44.1035 19.7148 44.1816 19.1738 44.3379 18.6895C44.498 18.2012 44.7266 17.7832 45.0234 17.4355C45.3242 17.0879 45.6855 16.8203 46.1074 16.6328C46.5293 16.4453 47.0039 16.3516 47.5312 16.3516C48.1758 16.3516 48.7207 16.4727 49.166 16.7148C49.6113 16.957 49.957 17.293 50.2031 17.7227C50.4531 18.1484 50.6074 18.6426 50.666 19.2051H49.541C49.4863 18.8066 49.3848 18.4648 49.2363 18.1797C49.0879 17.8906 48.877 17.668 48.6035 17.5117C48.3301 17.3555 47.9727 17.2773 47.5312 17.2773C47.1523 17.2773 46.8184 17.3496 46.5293 17.4941C46.2441 17.6387 46.0039 17.8438 45.8086 18.1094C45.6172 18.375 45.4727 18.6934 45.375 19.0645C45.2773 19.4355 45.2285 19.8477 45.2285 20.3008V21.1621C45.2285 21.5801 45.2715 21.9727 45.3574 22.3398C45.4473 22.707 45.582 23.0293 45.7617 23.3066C45.9414 23.584 46.1699 23.8027 46.4473 23.9629C46.7246 24.1191 47.0527 24.1973 47.4316 24.1973C47.9121 24.1973 48.2949 24.1211 48.5801 23.9688C48.8652 23.8164 49.0801 23.5977 49.2246 23.3125C49.373 23.0273 49.4785 22.6855 49.541 22.2871ZM53.127 16V25H52.043V16H53.127ZM52.8691 21.5898L52.418 21.5723C52.4219 21.1387 52.4863 20.7383 52.6113 20.3711C52.7363 20 52.9121 19.6777 53.1387 19.4043C53.3652 19.1309 53.6348 18.9199 53.9473 18.7715C54.2637 18.6191 54.6133 18.543 54.9961 18.543C55.3086 18.543 55.5898 18.5859 55.8398 18.6719C56.0898 18.7539 56.3027 18.8867 56.4785 19.0703C56.6582 19.2539 56.7949 19.4922 56.8887 19.7852C56.9824 20.0742 57.0293 20.4277 57.0293 20.8457V25H55.9395V20.834C55.9395 20.502 55.8906 20.2363 55.793 20.0371C55.6953 19.834 55.5527 19.6875 55.3652 19.5977C55.1777 19.5039 54.9473 19.457 54.6738 19.457C54.4043 19.457 54.1582 19.5137 53.9355 19.627C53.7168 19.7402 53.5273 19.8965 53.3672 20.0957C53.2109 20.2949 53.0879 20.5234 52.998 20.7812C52.9121 21.0352 52.8691 21.3047 52.8691 21.5898ZM62.3906 23.916V20.6523C62.3906 20.4023 62.3398 20.1855 62.2383 20.002C62.1406 19.8145 61.9922 19.6699 61.793 19.5684C61.5938 19.4668 61.3477 19.416 61.0547 19.416C60.7812 19.416 60.541 19.4629 60.334 19.5566C60.1309 19.6504 59.9707 19.7734 59.8535 19.9258C59.7402 20.0781 59.6836 20.2422 59.6836 20.418H58.5996C58.5996 20.1914 58.6582 19.9668 58.7754 19.7441C58.8926 19.5215 59.0605 19.3203 59.2793 19.1406C59.502 18.957 59.7676 18.8125 60.0762 18.707C60.3887 18.5977 60.7363 18.543 61.1191 18.543C61.5801 18.543 61.9863 18.6211 62.3379 18.7773C62.6934 18.9336 62.9707 19.1699 63.1699 19.4863C63.373 19.7988 63.4746 20.1914 63.4746 20.6641V23.6172C63.4746 23.8281 63.4922 24.0527 63.5273 24.291C63.5664 24.5293 63.623 24.7344 63.6973 24.9062V25H62.5664C62.5117 24.875 62.4688 24.709 62.4375 24.502C62.4062 24.291 62.3906 24.0957 62.3906 23.916ZM62.5781 21.1562L62.5898 21.918H61.4941C61.1855 21.918 60.9102 21.9434 60.668 21.9941C60.4258 22.041 60.2227 22.1133 60.0586 22.2109C59.8945 22.3086 59.7695 22.4316 59.6836 22.5801C59.5977 22.7246 59.5547 22.8945 59.5547 23.0898C59.5547 23.2891 59.5996 23.4707 59.6895 23.6348C59.7793 23.7988 59.9141 23.9297 60.0938 24.0273C60.2773 24.1211 60.502 24.168 60.7676 24.168C61.0996 24.168 61.3926 24.0977 61.6465 23.957C61.9004 23.8164 62.1016 23.6445 62.25 23.4414C62.4023 23.2383 62.4844 23.041 62.4961 22.8496L62.959 23.3711C62.9316 23.5352 62.8574 23.7168 62.7363 23.916C62.6152 24.1152 62.4531 24.3066 62.25 24.4902C62.0508 24.6699 61.8125 24.8203 61.5352 24.9414C61.2617 25.0586 60.9531 25.1172 60.6094 25.1172C60.1797 25.1172 59.8027 25.0332 59.4785 24.8652C59.1582 24.6973 58.9082 24.4727 58.7285 24.1914C58.5527 23.9062 58.4648 23.5879 58.4648 23.2363C58.4648 22.8965 58.5312 22.5977 58.6641 22.3398C58.7969 22.0781 58.9883 21.8613 59.2383 21.6895C59.4883 21.5137 59.7891 21.3809 60.1406 21.291C60.4922 21.2012 60.8848 21.1562 61.3184 21.1562H62.5781ZM66.2637 20.0137V25H65.1797V18.6602H66.2051L66.2637 20.0137ZM66.0059 21.5898L65.5547 21.5723C65.5586 21.1387 65.623 20.7383 65.748 20.3711C65.873 20 66.0488 19.6777 66.2754 19.4043C66.502 19.1309 66.7715 18.9199 67.084 18.7715C67.4004 18.6191 67.75 18.543 68.1328 18.543C68.4453 18.543 68.7266 18.5859 68.9766 18.6719C69.2266 18.7539 69.4395 18.8867 69.6152 19.0703C69.7949 19.2539 69.9316 19.4922 70.0254 19.7852C70.1191 20.0742 70.166 20.4277 70.166 20.8457V25H69.0762V20.834C69.0762 20.502 69.0273 20.2363 68.9297 20.0371C68.832 19.834 68.6895 19.6875 68.502 19.5977C68.3145 19.5039 68.084 19.457 67.8105 19.457C67.541 19.457 67.2949 19.5137 67.0723 19.627C66.8535 19.7402 66.6641 19.8965 66.5039 20.0957C66.3477 20.2949 66.2246 20.5234 66.1348 20.7812C66.0488 21.0352 66.0059 21.3047 66.0059 21.5898ZM75.9199 18.6602H76.9043V24.8652C76.9043 25.4238 76.791 25.9004 76.5645 26.2949C76.3379 26.6895 76.0215 26.9883 75.6152 27.1914C75.2129 27.3984 74.748 27.502 74.2207 27.502C74.002 27.502 73.7441 27.4668 73.4473 27.3965C73.1543 27.3301 72.8652 27.2148 72.5801 27.0508C72.2988 26.8906 72.0625 26.6738 71.8711 26.4004L72.4395 25.7559C72.7051 26.0762 72.9824 26.2988 73.2715 26.4238C73.5645 26.5488 73.8535 26.6113 74.1387 26.6113C74.4824 26.6113 74.7793 26.5469 75.0293 26.418C75.2793 26.2891 75.4727 26.0977 75.6094 25.8438C75.75 25.5938 75.8203 25.2852 75.8203 24.918V20.0547L75.9199 18.6602ZM71.5547 21.9004V21.7773C71.5547 21.293 71.6113 20.8535 71.7246 20.459C71.8418 20.0605 72.0078 19.7188 72.2227 19.4336C72.4414 19.1484 72.7051 18.9297 73.0137 18.7773C73.3223 18.6211 73.6699 18.543 74.0566 18.543C74.4551 18.543 74.8027 18.6133 75.0996 18.7539C75.4004 18.8906 75.6543 19.0918 75.8613 19.3574C76.0723 19.6191 76.2383 19.9355 76.3594 20.3066C76.4805 20.6777 76.5645 21.0977 76.6113 21.5664V22.1055C76.5684 22.5703 76.4844 22.9883 76.3594 23.3594C76.2383 23.7305 76.0723 24.0469 75.8613 24.3086C75.6543 24.5703 75.4004 24.7715 75.0996 24.9121C74.7988 25.0488 74.4473 25.1172 74.0449 25.1172C73.666 25.1172 73.3223 25.0371 73.0137 24.877C72.709 24.7168 72.4473 24.4922 72.2285 24.2031C72.0098 23.9141 71.8418 23.5742 71.7246 23.1836C71.6113 22.7891 71.5547 22.3613 71.5547 21.9004ZM72.6387 21.7773V21.9004C72.6387 22.2168 72.6699 22.5137 72.7324 22.791C72.7988 23.0684 72.8984 23.3125 73.0312 23.5234C73.168 23.7344 73.3418 23.9004 73.5527 24.0215C73.7637 24.1387 74.0156 24.1973 74.3086 24.1973C74.668 24.1973 74.9648 24.1211 75.1992 23.9688C75.4336 23.8164 75.6191 23.6152 75.7559 23.3652C75.8965 23.1152 76.0059 22.8438 76.084 22.5508V21.1387C76.041 20.9238 75.9746 20.7168 75.8848 20.5176C75.7988 20.3145 75.6855 20.1348 75.5449 19.9785C75.4082 19.8184 75.2383 19.6914 75.0352 19.5977C74.832 19.5039 74.5938 19.457 74.3203 19.457C74.0234 19.457 73.7676 19.5195 73.5527 19.6445C73.3418 19.7656 73.168 19.9336 73.0312 20.1484C72.8984 20.3594 72.7988 20.6055 72.7324 20.8867C72.6699 21.1641 72.6387 21.4609 72.6387 21.7773ZM81.1816 25.1172C80.7402 25.1172 80.3398 25.043 79.9805 24.8945C79.625 24.7422 79.3184 24.5293 79.0605 24.2559C78.8066 23.9824 78.6113 23.6582 78.4746 23.2832C78.3379 22.9082 78.2695 22.498 78.2695 22.0527V21.8066C78.2695 21.291 78.3457 20.832 78.498 20.4297C78.6504 20.0234 78.8574 19.6797 79.1191 19.3984C79.3809 19.1172 79.6777 18.9043 80.0098 18.7598C80.3418 18.6152 80.6855 18.543 81.041 18.543C81.4941 18.543 81.8848 18.6211 82.2129 18.7773C82.5449 18.9336 82.8164 19.1523 83.0273 19.4336C83.2383 19.7109 83.3945 20.0391 83.4961 20.418C83.5977 20.793 83.6484 21.2031 83.6484 21.6484V22.1348H78.9141V21.25H82.5645V21.168C82.5488 20.8867 82.4902 20.6133 82.3887 20.3477C82.291 20.082 82.1348 19.8633 81.9199 19.6914C81.7051 19.5195 81.4121 19.4336 81.041 19.4336C80.7949 19.4336 80.5684 19.4863 80.3613 19.5918C80.1543 19.6934 79.9766 19.8457 79.8281 20.0488C79.6797 20.252 79.5645 20.5 79.4824 20.793C79.4004 21.0859 79.3594 21.4238 79.3594 21.8066V22.0527C79.3594 22.3535 79.4004 22.6367 79.4824 22.9023C79.5684 23.1641 79.6914 23.3945 79.8516 23.5938C80.0156 23.793 80.2129 23.9492 80.4434 24.0625C80.6777 24.1758 80.9434 24.2324 81.2402 24.2324C81.623 24.2324 81.9473 24.1543 82.2129 23.998C82.4785 23.8418 82.7109 23.6328 82.9102 23.3711L83.5664 23.8926C83.4297 24.0996 83.2559 24.2969 83.0449 24.4844C82.834 24.6719 82.5742 24.8242 82.2656 24.9414C81.9609 25.0586 81.5996 25.1172 81.1816 25.1172ZM93.2051 22.2871H94.3301C94.2715 22.8262 94.1172 23.3086 93.8672 23.7344C93.6172 24.1602 93.2637 24.498 92.8066 24.748C92.3496 24.9941 91.7793 25.1172 91.0957 25.1172C90.5957 25.1172 90.1406 25.0234 89.7305 24.8359C89.3242 24.6484 88.9746 24.3828 88.6816 24.0391C88.3887 23.6914 88.1621 23.2754 88.002 22.791C87.8457 22.3027 87.7676 21.7598 87.7676 21.1621V20.3125C87.7676 19.7148 87.8457 19.1738 88.002 18.6895C88.1621 18.2012 88.3906 17.7832 88.6875 17.4355C88.9883 17.0879 89.3496 16.8203 89.7715 16.6328C90.1934 16.4453 90.668 16.3516 91.1953 16.3516C91.8398 16.3516 92.3848 16.4727 92.8301 16.7148C93.2754 16.957 93.6211 17.293 93.8672 17.7227C94.1172 18.1484 94.2715 18.6426 94.3301 19.2051H93.2051C93.1504 18.8066 93.0488 18.4648 92.9004 18.1797C92.752 17.8906 92.541 17.668 92.2676 17.5117C91.9941 17.3555 91.6367 17.2773 91.1953 17.2773C90.8164 17.2773 90.4824 17.3496 90.1934 17.4941C89.9082 17.6387 89.668 17.8438 89.4727 18.1094C89.2812 18.375 89.1367 18.6934 89.0391 19.0645C88.9414 19.4355 88.8926 19.8477 88.8926 20.3008V21.1621C88.8926 21.5801 88.9355 21.9727 89.0215 22.3398C89.1113 22.707 89.2461 23.0293 89.4258 23.3066C89.6055 23.584 89.834 23.8027 90.1113 23.9629C90.3887 24.1191 90.7168 24.1973 91.0957 24.1973C91.5762 24.1973 91.959 24.1211 92.2441 23.9688C92.5293 23.8164 92.7441 23.5977 92.8887 23.3125C93.0371 23.0273 93.1426 22.6855 93.2051 22.2871ZM95.4199 21.9004V21.7656C95.4199 21.3086 95.4863 20.8848 95.6191 20.4941C95.752 20.0996 95.9434 19.7578 96.1934 19.4688C96.4434 19.1758 96.7461 18.9492 97.1016 18.7891C97.457 18.625 97.8555 18.543 98.2969 18.543C98.7422 18.543 99.1426 18.625 99.498 18.7891C99.8574 18.9492 100.162 19.1758 100.412 19.4688C100.666 19.7578 100.859 20.0996 100.992 20.4941C101.125 20.8848 101.191 21.3086 101.191 21.7656V21.9004C101.191 22.3574 101.125 22.7812 100.992 23.1719C100.859 23.5625 100.666 23.9043 100.412 24.1973C100.162 24.4863 99.8594 24.7129 99.5039 24.877C99.1523 25.0371 98.7539 25.1172 98.3086 25.1172C97.8633 25.1172 97.4629 25.0371 97.1074 24.877C96.752 24.7129 96.4473 24.4863 96.1934 24.1973C95.9434 23.9043 95.752 23.5625 95.6191 23.1719C95.4863 22.7812 95.4199 22.3574 95.4199 21.9004ZM96.5039 21.7656V21.9004C96.5039 22.2168 96.541 22.5156 96.6152 22.7969C96.6895 23.0742 96.8008 23.3203 96.9492 23.5352C97.1016 23.75 97.291 23.9199 97.5176 24.0449C97.7441 24.166 98.0078 24.2266 98.3086 24.2266C98.6055 24.2266 98.8652 24.166 99.0879 24.0449C99.3145 23.9199 99.502 23.75 99.6504 23.5352C99.7988 23.3203 99.9102 23.0742 99.9844 22.7969C100.062 22.5156 100.102 22.2168 100.102 21.9004V21.7656C100.102 21.4531 100.062 21.1582 99.9844 20.8809C99.9102 20.5996 99.7969 20.3516 99.6445 20.1367C99.4961 19.918 99.3086 19.7461 99.082 19.6211C98.8594 19.4961 98.5977 19.4336 98.2969 19.4336C98 19.4336 97.7383 19.4961 97.5117 19.6211C97.2891 19.7461 97.1016 19.918 96.9492 20.1367C96.8008 20.3516 96.6895 20.5996 96.6152 20.8809C96.541 21.1582 96.5039 21.4531 96.5039 21.7656ZM104.385 24.0215L106.119 18.6602H107.227L104.947 25H104.221L104.385 24.0215ZM102.938 18.6602L104.725 24.0508L104.848 25H104.121L101.824 18.6602H102.938ZM110.818 25.1172C110.377 25.1172 109.977 25.043 109.617 24.8945C109.262 24.7422 108.955 24.5293 108.697 24.2559C108.443 23.9824 108.248 23.6582 108.111 23.2832C107.975 22.9082 107.906 22.498 107.906 22.0527V21.8066C107.906 21.291 107.982 20.832 108.135 20.4297C108.287 20.0234 108.494 19.6797 108.756 19.3984C109.018 19.1172 109.314 18.9043 109.646 18.7598C109.979 18.6152 110.322 18.543 110.678 18.543C111.131 18.543 111.521 18.6211 111.85 18.7773C112.182 18.9336 112.453 19.1523 112.664 19.4336C112.875 19.7109 113.031 20.0391 113.133 20.418C113.234 20.793 113.285 21.2031 113.285 21.6484V22.1348H108.551V21.25H112.201V21.168C112.186 20.8867 112.127 20.6133 112.025 20.3477C111.928 20.082 111.771 19.8633 111.557 19.6914C111.342 19.5195 111.049 19.4336 110.678 19.4336C110.432 19.4336 110.205 19.4863 109.998 19.5918C109.791 19.6934 109.613 19.8457 109.465 20.0488C109.316 20.252 109.201 20.5 109.119 20.793C109.037 21.0859 108.996 21.4238 108.996 21.8066V22.0527C108.996 22.3535 109.037 22.6367 109.119 22.9023C109.205 23.1641 109.328 23.3945 109.488 23.5938C109.652 23.793 109.85 23.9492 110.08 24.0625C110.314 24.1758 110.58 24.2324 110.877 24.2324C111.26 24.2324 111.584 24.1543 111.85 23.998C112.115 23.8418 112.348 23.6328 112.547 23.3711L113.203 23.8926C113.066 24.0996 112.893 24.2969 112.682 24.4844C112.471 24.6719 112.211 24.8242 111.902 24.9414C111.598 25.0586 111.236 25.1172 110.818 25.1172ZM115.635 19.6562V25H114.551V18.6602H115.605L115.635 19.6562ZM117.615 18.625L117.609 19.6328C117.52 19.6133 117.434 19.6016 117.352 19.5977C117.273 19.5898 117.184 19.5859 117.082 19.5859C116.832 19.5859 116.611 19.625 116.42 19.7031C116.229 19.7812 116.066 19.8906 115.934 20.0312C115.801 20.1719 115.695 20.3398 115.617 20.5352C115.543 20.7266 115.494 20.9375 115.471 21.168L115.166 21.3438C115.166 20.9609 115.203 20.6016 115.277 20.2656C115.355 19.9297 115.475 19.6328 115.635 19.375C115.795 19.1133 115.998 18.9102 116.244 18.7656C116.494 18.6172 116.791 18.543 117.135 18.543C117.213 18.543 117.303 18.5527 117.404 18.5723C117.506 18.5879 117.576 18.6055 117.615 18.625Z" fill="white"/>
<rect x="0.25" y="0.25" width="137.5" height="41.5" rx="1.75" stroke="white" stroke-width="0.5"/>
</svg>
